<?xml version="1.0" standalone="no"?><!DOCTYPE svg PUBLIC "-//W3C//DTD SVG 1.1//EN" "http://www.w3.org/Graphics/SVG/1.1/DTD/svg11.dtd"><svg height="1025" node-id="1" sillyvg="true" template-height="1025" template-width="1024" version="1.1" viewBox="0 0 1024 1025" width="1024" xmlns="http://www.w3.org/2000/svg" xmlns:xlink="http://www.w3.org/1999/xlink"><defs node-id="32"></defs><path d="M 0.00 0.00 L 1024.00 0.00 L 1024.00 1024.00 L 0.00 1024.00 Z" fill="#fff7eb" fill-rule="nonzero" node-id="34" stroke="none" target-height="1024" target-width="1024" target-x="0" target-y="0"></path><path d="M 426.44 758.32 L 412.65 578.45 L 614.31 578.45 L 614.31 758.32 C 616.32 788.25 629.25 817.90 717.89 824.08 C 710.82 880.62 759.41 976.46 520.89 975.95 C 282.37 975.45 315.94 859.74 313.29 812.03 C 378.36 814.68 424.36 789.32 426.44 758.32 Z" fill="#f6b88a" fill-rule="evenodd" node-id="36" stroke="none" target-height="398.00598" target-width="477.03998" target-x="282.37" target-y="578.45"></path><path d="M 483.51 840.59 L 422.76 820.58" fill="none" node-id="38" stroke="#ea9e66" stroke-linecap="round" stroke-width="7.06207" target-height="20.007019" target-width="60.743988" target-x="422.764" target-y="820.581"></path><path d="M 562.34 840.59 L 623.08 820.58" fill="none" node-id="40" stroke="#ea9e66" stroke-linecap="round" stroke-width="7.06207" target-height="20.007019" target-width="60.743958" target-x="562.34" target-y="820.581"></path><path d="M 614.31 634.09 C 614.31 634.09 535.22 716.12 423.03 708.17 C 423.03 698.45 412.65 580.22 412.65 580.22 L 614.31 580.22 L 614.31 634.09 Z" fill="#ea9e66" fill-rule="evenodd" node-id="42" stroke="none" target-height="135.90399" target-width="201.66199" target-x="412.646" target-y="580.217"></path><path d="M 369.55 458.92 C 369.55 458.92 341.16 431.24 321.17 452.08 C 311.76 461.90 312.41 489.28 325.09 515.24 C 330.93 525.20 339.02 535.98 349.68 543.75 C 358.85 550.45 369.61 547.21 382.78 547.03 L 369.55 458.92 Z" fill="#f6b88a" fill-rule="evenodd" node-id="44" stroke="none" target-height="119.20798" target-width="71.02399" target-x="311.756" target-y="431.243"></path><path d="M 661.92 458.92 C 661.92 458.92 690.31 431.24 710.29 452.08 C 719.71 461.90 719.05 489.28 706.38 515.24 C 700.54 525.20 692.44 535.98 681.79 543.75 C 672.61 550.45 661.85 547.21 648.69 547.03 L 661.92 458.92 Z" fill="#f6b88a" fill-rule="evenodd" node-id="46" stroke="none" target-height="119.20798" target-width="71.02399" target-x="648.687" target-y="431.243"></path><path d="M 511.38 208.71 C 393.60 208.71 344.65 308.82 354.09 431.31 C 358.54 489.05 355.63 499.40 369.01 558.04 C 373.63 578.34 412.70 641.38 466.35 666.08 C 483.15 673.81 500.25 673.28 519.29 673.28 C 535.74 673.28 552.50 674.55 566.94 667.88 C 618.12 644.21 654.43 579.30 659.17 558.04 C 671.96 500.59 671.96 489.48 676.59 431.31 C 686.28 309.49 637.08 208.71 519.29 208.71 L 511.38 208.71 Z" fill="#ffcca6" fill-rule="evenodd" node-id="48" stroke="none" target-height="465.842" target-width="341.63098" target-x="344.654" target-y="208.712"></path><path d="M 552.20 409.60 C 549.82 409.60 547.79 407.77 547.60 405.34 C 547.40 402.80 549.29 400.56 551.83 400.35 L 612.17 395.49 C 612.82 395.44 613.44 395.52 614.04 395.72 L 627.37 400.29 C 629.78 401.11 631.07 403.75 630.24 406.17 C 629.42 408.58 626.79 409.90 624.37 409.05 L 611.96 404.80 L 552.58 409.59 C 552.45 409.60 552.32 409.60 552.20 409.60 Z" fill="#654840" fill-rule="evenodd" node-id="50" stroke="none" target-height="14.45401" target-width="83.67297" target-x="547.398" target-y="395.443"></path><path d="M 472.28 409.60 C 474.66 409.60 476.68 407.77 476.88 405.34 C 477.08 402.80 475.19 400.56 472.65 400.35 L 412.31 395.49 C 411.66 395.44 411.04 395.52 410.44 395.72 L 397.11 400.29 C 394.70 401.11 393.41 403.75 394.24 406.17 C 395.06 408.58 397.68 409.90 400.10 409.05 L 412.52 404.80 L 471.90 409.59 C 472.03 409.60 472.16 409.60 472.28 409.60 Z" fill="#654840" fill-rule="evenodd" node-id="52" stroke="none" target-height="14.45401" target-width="83.67398" target-x="393.407" target-y="395.443"></path><path d="M 650.11 414.07 L 660.94 428.79 L 671.96 479.09 C 677.75 456.48 682.53 410.46 682.53 404.43 C 682.53 308.32 628.26 238.34 521.79 238.34 C 398.48 238.34 346.32 304.60 346.32 404.30 C 346.32 444.22 359.85 480.22 359.85 480.22 L 366.31 428.79 C 366.31 428.79 375.56 415.72 376.19 413.70 C 378.54 406.17 374.13 351.82 382.07 322.58 C 382.07 322.58 466.12 289.90 535.66 320.06 C 535.66 320.06 580.30 294.09 637.63 321.32 C 645.79 352.85 650.11 414.07 650.11 414.07 Z" fill="#805c53" fill-rule="evenodd" node-id="54" stroke="none" target-height="241.876" target-width="336.21298" target-x="346.316" target-y="238.345"></path><path d="M 348.01 424.43 C 348.01 424.43 326.03 350.85 331.64 312.89 C 334.91 290.81 370.32 248.54 387.76 232.26 C 408.18 213.20 423.20 201.15 458.84 185.39 C 522.42 157.28 559.84 207.89 559.84 207.89 C 559.84 207.89 621.56 161.02 698.25 301.63 C 709.12 321.57 697.31 371.00 679.77 429.36 C 679.77 429.36 653.83 411.78 631.38 356.94 C 598.76 277.24 540.20 340.06 540.20 340.06 C 540.20 340.06 471.90 306.75 435.92 326.94 C 365.78 366.31 420.95 384.12 348.01 424.43 Z" fill="#3e2a25" fill-rule="evenodd" node-id="56" stroke="none" target-height="272.083" target-width="383.09396" target-x="326.027" target-y="157.275"></path><path d="M 425.27 291.57 C 402.02 312.75 398.73 325.32 393.98 368.99 C 423.56 310.23 477.85 314.26 539.64 339.86 C 539.64 339.86 492.87 244.98 425.27 291.57 Z" fill="#221410" fill-rule="evenodd" node-id="58" stroke="none" target-height="124.01001" target-width="145.656" target-x="393.984" target-y="244.983"></path><path d="M 634.98 362.81 C 634.98 362.81 600.55 248.06 539.64 339.86 C 594.37 310.73 634.98 362.81 634.98 362.81 Z" fill="#221410" fill-rule="evenodd" node-id="60" stroke="none" target-height="114.759" target-width="95.33801" target-x="539.641" target-y="248.055"></path><path d="M 535.89 429.25 C 535.90 429.25 535.90 429.25 534.34 434.32 L 535.90 429.25 C 538.70 430.12 540.27 433.08 539.41 435.88 C 538.55 438.65 535.63 440.22 532.85 439.40 C 532.84 439.40 532.83 439.39 532.82 439.39 C 532.75 439.38 532.63 439.35 532.46 439.32 C 532.11 439.25 531.60 439.19 531.01 439.20 C 529.82 439.22 528.68 439.51 527.78 440.30 C 526.93 441.04 525.54 442.87 525.09 447.49 C 524.64 452.18 525.21 459.34 528.00 470.06 C 528.00 470.09 528.01 470.11 528.01 470.14 C 530.22 479.19 532.05 487.24 533.02 494.03 C 533.97 500.69 534.22 506.86 532.73 511.83 C 531.96 514.41 530.67 516.82 528.64 518.76 C 526.61 520.72 524.10 521.95 521.31 522.58 C 515.96 523.79 509.26 522.90 501.37 520.67 C 498.56 519.88 496.92 516.95 497.72 514.14 C 498.51 511.32 501.44 509.68 504.25 510.48 C 511.71 512.58 516.29 512.86 518.97 512.25 C 520.18 511.98 520.87 511.55 521.30 511.13 C 521.75 510.69 522.22 510.00 522.59 508.78 C 523.38 506.14 523.44 501.90 522.53 495.53 C 521.64 489.31 519.93 481.72 517.73 472.69 C 514.79 461.36 513.93 452.86 514.55 446.47 C 515.18 440.00 517.37 435.32 520.82 432.31 C 524.23 429.34 528.11 428.65 530.86 428.61 C 532.25 428.59 533.45 428.73 534.30 428.88 C 534.74 428.96 535.09 429.04 535.36 429.11 C 535.50 429.14 535.61 429.17 535.70 429.20 C 535.75 429.21 535.79 429.22 535.82 429.23 L 535.87 429.24 L 535.88 429.25 L 535.89 429.25 Z" fill="#dd936f" fill-rule="evenodd" node-id="62" stroke="none" target-height="95.20398" target-width="43.34604" target-x="496.921" target-y="428.588"></path><path d="M 439.01 478.45 C 449.25 478.45 457.55 469.24 457.55 455.50 C 457.55 441.77 449.25 432.55 439.01 432.55 C 428.77 432.55 420.47 441.77 420.47 455.50 C 420.47 469.24 428.77 478.45 439.01 478.45 Z" fill="#3e2a25" fill-rule="evenodd" node-id="64" stroke="none" target-height="45.902985" target-width="37.07602" target-x="420.469" target-y="432.552"></path><path d="M 583.77 478.45 C 594.01 478.45 602.32 469.24 602.32 455.50 C 602.32 441.77 594.01 432.55 583.77 432.55 C 573.55 432.55 565.24 441.77 565.24 455.50 C 565.24 469.24 573.55 478.45 583.77 478.45 Z" fill="#3e2a25" fill-rule="evenodd" node-id="66" stroke="none" target-height="45.902985" target-width="37.07599" target-x="565.242" target-y="432.552"></path><g node-id="94"><path d="M 445.78 524.25 C 445.78 543.26 430.36 558.68 411.35 558.68 C 392.33 558.68 376.92 543.26 376.92 524.25 C 376.92 505.23 392.33 489.82 411.35 489.82 C 430.36 489.82 445.78 505.23 445.78 524.25 Z" fill="#ffd2b9" fill-opacity="0.604969" fill-rule="nonzero" group-id="1" node-id="70" stroke="none" target-height="68.855194" target-width="68.855194" target-x="376.9204" target-y="489.8204"></path></g><g node-id="95"><path d="M 654.11 524.25 C 654.11 543.26 638.69 558.68 619.68 558.68 C 600.66 558.68 585.25 543.26 585.25 524.25 C 585.25 505.23 600.66 489.82 619.68 489.82 C 638.69 489.82 654.11 505.23 654.11 524.25 Z" fill="#ffd2b9" fill-opacity="0.604969" fill-rule="nonzero" group-id="2" node-id="75" stroke="none" target-height="68.855194" target-width="68.85516" target-x="585.2504" target-y="489.8204"></path></g><path d="M 470.79 568.50 C 470.79 568.50 492.86 566.73 514.04 566.73 C 535.23 566.73 562.59 569.38 562.59 569.38 C 562.59 569.38 546.70 586.15 516.69 586.15 C 486.68 586.15 470.79 568.50 470.79 568.50 Z" fill="#ffffff" fill-rule="evenodd" node-id="78" stroke="none" target-height="19.42096" target-width="91.80701" target-x="470.787" target-y="566.731"></path><path d="M 470.79 568.50 C 466.85 572.04 466.85 572.04 466.85 572.04 L 466.86 572.05 L 466.87 572.06 L 466.89 572.08 C 466.90 572.10 466.93 572.12 466.95 572.15 C 467.00 572.20 467.06 572.27 467.14 572.36 C 467.31 572.52 467.53 572.76 467.82 573.04 C 468.40 573.61 469.24 574.38 470.32 575.30 C 472.49 577.13 475.68 579.53 479.86 581.92 C 488.23 586.71 500.60 591.45 516.69 591.45 C 532.72 591.45 545.06 586.96 553.42 582.42 C 557.60 580.15 560.79 577.87 562.96 576.13 C 564.04 575.26 564.88 574.52 565.46 573.98 C 565.75 573.71 565.98 573.49 566.14 573.33 C 566.22 573.25 566.29 573.18 566.34 573.13 C 566.36 573.10 566.38 573.08 566.40 573.06 L 566.42 573.04 L 566.43 573.03 L 566.43 573.02 C 566.44 573.02 566.44 573.02 562.59 569.38 L 566.44 573.02 C 567.83 571.55 568.26 569.42 567.55 567.52 C 566.85 565.63 565.12 564.30 563.10 564.11 L 562.59 569.38 C 563.10 564.11 563.10 564.11 563.10 564.11 L 562.78 564.08 C 562.57 564.06 562.26 564.03 561.86 563.99 C 561.06 563.92 559.90 563.81 558.44 563.69 C 555.52 563.44 551.41 563.10 546.63 562.77 C 537.10 562.11 524.82 561.43 514.04 561.43 C 503.32 561.43 492.40 561.88 484.18 562.33 C 480.07 562.55 476.62 562.77 474.20 562.94 C 472.99 563.02 472.04 563.09 471.38 563.14 C 471.05 563.16 470.80 563.18 470.63 563.20 L 470.37 563.22 C 470.37 563.22 470.37 563.22 470.79 568.50 Z M 485.37 572.87 C 492.44 576.86 502.93 580.86 516.69 580.86 C 530.24 580.86 540.63 577.19 547.70 573.47 C 547.11 573.42 546.51 573.38 545.89 573.34 C 536.45 572.68 524.45 572.03 514.04 572.03 C 503.84 572.03 493.40 572.44 485.37 572.87 Z M 470.79 568.50 L 470.37 563.22 C 468.36 563.38 466.61 564.66 465.87 566.54 C 465.12 568.41 465.50 570.54 466.85 572.04 L 470.79 568.50 Z" fill="#c14e45" fill-rule="evenodd" node-id="80" stroke="none" target-height="30.013977" target-width="103.142975" target-x="465.121" target-y="561.434"></path><path d="M 367.50 423.79 C 367.50 419.85 370.70 416.66 374.63 416.66 L 494.55 416.66 C 498.49 416.66 501.68 419.85 501.68 423.79 L 501.68 450.21 C 501.68 487.26 471.65 517.30 434.59 517.30 C 397.54 517.30 367.50 487.26 367.50 450.21 L 367.50 423.79 Z M 374.57 423.77 C 374.57 423.77 374.57 423.78 374.57 423.79 L 374.57 450.21 C 374.57 483.36 401.44 510.24 434.59 510.24 C 467.75 510.24 494.62 483.36 494.62 450.21 L 494.62 423.79 C 494.62 423.78 494.62 423.77 494.62 423.77 C 494.62 423.76 494.61 423.75 494.60 423.74 C 494.59 423.74 494.58 423.73 494.58 423.73 C 494.57 423.73 494.57 423.72 494.55 423.72 L 374.63 423.72 C 374.62 423.72 374.61 423.73 374.61 423.73 C 374.60 423.73 374.60 423.74 374.59 423.74 C 374.58 423.75 374.57 423.76 374.57 423.77 Z" fill="#697a8d" fill-rule="evenodd" node-id="82" stroke="none" target-height="100.63501" target-width="134.17902" target-x="367.504" target-y="416.662"></path><path d="M 526.40 423.79 C 526.40 419.85 529.59 416.66 533.53 416.66 L 653.45 416.66 C 657.39 416.66 660.58 419.85 660.58 423.79 L 660.58 450.21 C 660.58 487.26 630.54 517.30 593.49 517.30 C 556.44 517.30 526.40 487.26 526.40 450.21 L 526.40 423.79 Z M 533.47 423.77 C 533.47 423.77 533.46 423.78 533.46 423.79 L 533.46 450.21 C 533.46 483.36 560.34 510.24 593.49 510.24 C 626.64 510.24 653.52 483.36 653.52 450.21 L 653.52 423.79 C 653.52 423.78 653.51 423.77 653.51 423.77 C 653.51 423.76 653.51 423.75 653.50 423.74 C 653.49 423.74 653.48 423.73 653.48 423.73 C 653.47 423.73 653.47 423.72 653.45 423.72 L 533.53 423.72 C 533.51 423.72 533.51 423.73 533.50 423.73 C 533.50 423.73 533.49 423.74 533.48 423.74 C 533.47 423.75 533.47 423.76 533.47 423.77 Z" fill="#697a8d" fill-rule="evenodd" node-id="84" stroke="none" target-height="100.63501" target-width="134.17902" target-x="526.401" target-y="416.662"></path><path d="M 499.27 461.50 C 499.27 461.50 499.27 461.50 498.15 458.15 C 497.04 454.80 497.04 454.80 497.04 454.80 L 497.05 454.80 L 497.08 454.79 L 497.18 454.76 C 497.26 454.73 497.38 454.69 497.54 454.64 C 497.86 454.54 498.31 454.39 498.88 454.22 C 500.00 453.88 501.57 453.42 503.34 452.97 C 506.77 452.08 511.35 451.09 514.92 451.09 C 518.55 451.09 522.70 452.10 525.75 453.00 C 527.32 453.46 528.68 453.93 529.65 454.28 C 530.13 454.45 530.52 454.60 530.80 454.70 C 530.93 454.75 531.04 454.79 531.12 454.82 L 531.21 454.86 L 531.23 454.87 L 531.24 454.87 C 531.24 454.87 531.24 454.87 529.93 458.15 C 528.62 461.43 528.62 461.43 528.62 461.43 L 528.61 461.43 L 528.54 461.40 C 528.49 461.38 528.40 461.34 528.28 461.30 C 528.05 461.21 527.70 461.08 527.26 460.92 C 526.39 460.61 525.15 460.19 523.74 459.77 C 520.83 458.91 517.48 458.15 514.92 458.15 C 512.32 458.15 508.51 458.93 505.10 459.81 C 503.45 460.23 501.99 460.66 500.93 460.98 C 500.40 461.14 499.98 461.27 499.70 461.36 C 499.55 461.41 499.44 461.44 499.37 461.47 L 499.29 461.50 L 499.27 461.50 Z" fill="#697a8d" fill-rule="evenodd" node-id="86" stroke="none" target-height="10.412018" target-width="34.20697" target-x="497.036" target-y="451.09"></path><path d="M 612.15 786.22 C 617.26 780.56 622.44 774.81 627.91 769.18 C 653.01 791.56 748.50 811.50 792.50 815.50 C 836.50 819.50 905.59 844.03 923.04 908.48 L 941.70 1024.13 L 98.28 1024.13 L 108.04 933.18 C 118.00 835.50 191.38 820.45 256.99 808.57 C 262.09 807.65 267.35 806.70 272.77 805.67 L 346.32 797.73 C 371.03 793.24 393.94 787.72 406.77 776.27 C 421.96 804.79 458.48 907.51 518.50 908.48 C 564.00 909.22 586.97 814.13 612.15 786.22 Z" fill="#8fb8ff" fill-rule="nonzero" node-id="88" stroke="none" target-height="254.953" target-width="843.4148" target-x="98.2832" target-y="769.177"></path><path d="M 518.20 910.85 C 513.28 910.85 481.99 910.85 454.29 917.73 C 426.58 924.61 410.18 951.13 397.37 946.36 C 384.57 941.58 383.05 880.12 385.09 848.06 C 387.13 816.00 399.83 757.50 412.64 757.50 C 425.44 757.50 458.68 889.82 518.20 910.85 Z" fill="#4e7fd3" fill-rule="evenodd" node-id="90" stroke="none" target-height="193.63501" target-width="135.14902" target-x="383.046" target-y="757.5"></path><path d="M 518.52 910.85 C 523.43 910.85 554.72 910.85 582.43 917.73 C 610.13 924.61 626.54 951.13 639.34 946.36 C 652.15 941.58 653.67 880.12 651.63 848.06 C 649.59 816.00 636.88 757.50 624.08 757.50 C 611.27 757.50 582.43 889.82 518.52 910.85 Z" fill="#4e7fd3" fill-rule="evenodd" node-id="92" stroke="none" target-height="193.63501" target-width="135.14899" target-x="518.52" target-y="757.5"></path></svg>